# xmcd
#
# Track frame offsets:
#	150
#	17476
#	32037
#	49133
#	64242
#	80647
#	93149
#	109371
#	129594
#	146755
#	165545
#	183200
#	197889
#	210722
#	233957
#
# Disc length: 3428 seconds
#
# Revision: 1
# Processed by: cddbd v1.5.1PL2 Copyright (c) Steve Scherf et al.
# Submitted via: audiograbber 1.83.01
#
DISCID=d20d620f
DTITLE=Leoni - Leoni ao vivo
DYEAR=2005
DGENRE=MPB
TTITLE0=50 Receitas
TTITLE1=Educacao sentimental
TTITLE2=Por que nao eu?
TTITLE3=Alice - Conspiracao internacional
TTITLE4=Garotos II, O outro lado
TTITLE5=Temporada das flores
TTITLE6=Esse outro mundo
TTITLE7=Duble de corpo
TTITLE8=So pro meu prazer
TTITLE9=Como eu quero
TTITLE10=Falando de amor
TTITLE11=Lagrimas e chuva
TTITLE12=Fixacao
TTITLE13=Carro e grana - Formula do amor
TTITLE14=Exagerado
EXTD=
EXTT0=
EXTT1=
EXTT2=
EXTT3=
EXTT4=
EXTT5=
EXTT6=
EXTT7=
EXTT8=
EXTT9=
EXTT10=
EXTT11=
EXTT12=
EXTT13=
EXTT14=
PLAYORDER=
